<svg version="1.1" id="Capa_1" xmlns="http://www.w3.org/2000/svg" xmlns:xlink="http://www.w3.org/1999/xlink" x="0px" y="0px" viewBox="0 0 57 57" style="enable-background:new 0 0 57 57;" xml:space="preserve">
<circle style="fill: none; stroke: rgb(7, 8, 8); stroke-width: 2; stroke-miterlimit: 10;" cx="27" cy="44" r="12" id="id_110"></circle>
<path style="fill: none; stroke: rgb(4, 5, 5); stroke-width: 2; stroke-miterlimit: 10;" d="M7,20v17.514v-0.973C7,47.296,15.704,56,26.459,56
	C39.367,56,50,48.556,50,35.649V31" id="id_111"></path>
<circle style="fill: none; stroke: rgb(9, 10, 10); stroke-width: 2; stroke-miterlimit: 10;" cx="27" cy="41" r="15" id="id_112"></circle>
<rect x="47" y="20" style="fill: rgb(0, 0, 0);" width="6" height="7" id="id_113"></rect>
<rect x="48" y="27" style="fill: rgb(3, 5, 5);" width="4" height="5" id="id_114"></rect>
<path style="fill: rgb(15, 15, 15);" d="M52,20h-4v-7c0-1.105,0.895-2,2-2h0c1.105,0,2,0.895,2,2V20z" id="id_115"></path>
<rect x="4" y="9" style="fill: rgb(12, 13, 13);" width="6" height="7" id="id_116"></rect>
<rect x="5" y="16" style="fill: rgb(9, 10, 10);" width="4" height="5" id="id_117"></rect>
<path style="fill: rgb(0, 0, 0);" d="M9,9H5V2c0-1.105,0.895-2,2-2h0c1.105,0,2,0.895,2,2V9z" id="id_118"></path>
<g>
</g>
<g>
</g>
<g>
</g>
<g>
</g>
<g>
</g>
<g>
</g>
<g>
</g>
<g>
</g>
<g>
</g>
<g>
</g>
<g>
</g>
<g>
</g>
<g>
</g>
<g>
</g>
<g>
</g>
</svg>