<svg xmlns="http://www.w3.org/2000/svg" viewBox="0 0 64 64"><g id="flat"><path d="M51.5,43H28a1,1,0,0,1-1-1V34.723A1.994,1.994,0,0,0,28,33V29H24v4a1.994,1.994,0,0,0,1,1.723V42a3,3,0,0,0,3,3H51.5a7.5,7.5,0,0,1,0,15h-40a7.5,7.5,0,0,1,0-15A3.5,3.5,0,0,0,15,41.5V19.723A1.994,1.994,0,0,0,16,18V14H12v4a1.994,1.994,0,0,0,1,1.723V41.5A1.5,1.5,0,0,1,11.5,43a9.5,9.5,0,0,0,0,19h40a9.5,9.5,0,0,0,0-19Z" style="fill: rgb(54, 177, 201);" id="id_101"></path><polygon points="21 14 17 13 17 9 21 8 21 14" style="fill: rgb(181, 54, 201);" id="id_102"></polygon><polygon points="12 14 12 16 15 18 16 18 16 14 12 14" style="fill: rgb(55, 182, 191);" id="id_103"></polygon><path d="M23,7a3.955,3.955,0,0,0-2,.555v6.89A3.955,3.955,0,0,0,23,15a4,4,0,0,0,0-8Z" style="fill: rgb(75, 195, 219);" id="id_104"></path><polygon points="33 29 29 28 29 24 33 23 33 29" style="fill: rgb(180, 54, 199);" id="id_105"></polygon><polygon points="24 29 24 31 27 33 28 33 28 29 24 29" style="fill: rgb(171, 53, 189);" id="id_106"></polygon><path d="M35,22a3.955,3.955,0,0,0-2,.555v6.89A3.955,3.955,0,0,0,35,30a4,4,0,0,0,0-8Z" style="fill: rgb(74, 193, 217);" id="id_107"></path><rect x="31" y="41" width="20" height="6" rx="2" ry="2" style="fill: rgb(55, 144, 191);" id="id_108"></rect><polygon points="40 41 40 47 44 44 40 41" style="fill: rgb(172, 52, 191);" id="id_109"></polygon><rect x="36" y="41" width="2" height="6" style="fill: rgb(150, 55, 191);" id="id_110"></rect><path d="M47,23a2,2,0,0,0-2,2v7h-.5A2.5,2.5,0,1,0,47,34.5V27h4a3.564,3.564,0,0,0,3.564-3.564V23Z" style="fill:#c0f5f9" id="id_111"></path><path d="M61,2a1,1,0,0,0-1,1v.091l-9.018.82A.993.993,0,0,0,49,4v9h-.5A2.5,2.5,0,1,0,51,15.5V7.909l9-.818V12h-.5A2.5,2.5,0,1,0,62,14.5V3A1,1,0,0,0,61,2Z" style="fill:#c0f5f9" id="id_112"></path><path d="M37.073,19.231a1,1,0,0,1-.734-1.678,9.978,9.978,0,0,0-.268-13.846,1,1,0,0,1,1.414-1.414,11.979,11.979,0,0,1,.324,16.617A1,1,0,0,1,37.073,19.231Z" style="fill:#aae5c8" id="id_113"></path><path d="M34.137,16.521a1,1,0,0,1-.734-1.679,5.985,5.985,0,0,0-.161-8.307,1,1,0,0,1,1.415-1.414A7.985,7.985,0,0,1,34.872,16.2,1,1,0,0,1,34.137,16.521Z" style="fill:#aae5c8" id="id_114"></path><path d="M34.137,16.521a1,1,0,0,1-.734-1.679,5.985,5.985,0,0,0-.161-8.307,1,1,0,0,1,1.415-1.414A7.985,7.985,0,0,1,34.872,16.2,1,1,0,0,1,34.137,16.521Z" style="fill:#aae5c8" id="id_115"></path><path d="M31.2,13.807a1,1,0,0,1-.734-1.679,1.983,1.983,0,0,0-.049-2.764A1,1,0,0,1,31.828,7.95a3.982,3.982,0,0,1,.1,5.535A1,1,0,0,1,31.2,13.807Z" style="fill:#aae5c8" id="id_116"></path><path d="M31.2,13.807a1,1,0,0,1-.734-1.679,1.983,1.983,0,0,0-.049-2.764A1,1,0,0,1,31.828,7.95a3.982,3.982,0,0,1,.1,5.535A1,1,0,0,1,31.2,13.807Z" style="fill:#aae5c8" id="id_117"></path><rect x="12" y="56" width="2" height="2" style="fill:#aae5c8" id="id_118"></rect><rect x="16" y="56" width="2" height="2" style="fill:#aae5c8" id="id_119"></rect><rect x="20" y="56" width="6" height="2" style="fill:#aae5c8" id="id_120"></rect><rect x="28" y="56" width="2" height="2" style="fill:#aae5c8" id="id_121"></rect><polygon points="17 16 15 16 12 14 12 8 15 5 17 5 17 16" style="fill: rgb(167, 55, 184);" id="id_122"></polygon><polygon points="29 31 27 31 24 29 24 23 27 20 29 20 29 31" style="fill: rgb(167, 53, 184);" id="id_123"></polygon><polygon points="19 8.5 17 9 17 13 19 13.5 19 8.5" style="fill: rgb(55, 144, 191);" id="id_124"></polygon><polygon points="31 23.5 29 24 29 28 31 28.5 31 23.5" style="fill: rgb(56, 143, 189);" id="id_125"></polygon></g></svg>