<svg xmlns="http://www.w3.org/2000/svg" viewBox="0 0 64 64"><g id="Layer_27" data-name="Layer 27"><path d="M56.37,34.65V29.39a.45.45,0,0,0,0-.11L55,23.06l-2.6-5.88L48.72,12,44.18,7.93,39.1,5.13,33.88,3.76s0,0-.06,0l-5.17.08-4.9,1.25h0L19,6.54l-.06,0L14.81,9.3a.1.1,0,0,0-.05,0l-3.3,3.83L9.14,17.83,7.88,23a.36.36,0,0,0,0,.1l-.19,4.75-.08.79.12,2,0,1.54,0,1.55,0,.73.24,2.34L8,38.28l0,1.49,0,1.51.14,2.44.58,2.43,1,2.24L11,50.3l1.51,1.38.06,0,1.62.82s.05,0,.08,0l1.61.2H16l.38-.08.21,0,.6.41.05,0,2,1.11.08,0,1.91.31a.17.17,0,0,0,.1,0l.58-.12H22l.1,0h.07l.39-.08h0l.52-.14h0l2.08-.38,1.68-.48.17-.08,1.44-1.31.13-.12.94-2L30,47.35v-.09l-.1-2.69-.57-2.88-1-2.91L26.89,36l0-.06-1.7-2.43-1.89-1.91-2.07-1.37L21,30.19l-2.09-.58h-.19l-1.93.29-1.55.45-.12,0-.6-2.08-.33-1.42-.09-.42,0-.63s0,0,0-.07l.28-3.47v0l1.24-4.82,2.05-4,1.43-1.62a.2.2,0,0,0,.06-.07l0-.05,1.6-.87,1.53-.61,1.93-.28,2.57-.08,2.55.22,2.68.53,2.61.81,2.68,1.14L40,14l2.5,1.69,2.2,1.81v0a.19.19,0,0,0,0,.07.29.29,0,0,0,0,.13.18.18,0,0,0,0,.09l1.66,2.34h0l2.34,5.37L50,31.59l.18,4.15v0l0,.78-.37,1.34-.13-.09-.06,0-.09,0v0h0a.3.3,0,0,0-.08-.08L49,37.33l-.06,0-.38-.13-2.51-1.83-1.16-.45-.21-.06-.22,0h-.22l-1.52.42-.2.07L40.8,36.44,39,38.17l-1.74,2.14-1.66,2.51-1.46,2.67L33,48.12l-.77,2.54L32,52.81l.21,1.63.05.21.07.2.1.19.79,1L35,57.38l.77.44.33.37.44.32.1.05h0l.1.12.66.48a.19.19,0,0,0,.1.05h0l1,.06a.14.14,0,0,0,.09,0l1.69-.57.61.75.06.05.61.38.44.33h0a.23.23,0,0,0,.14,0h0l.85,0a.23.23,0,0,0,.11,0l1.21-.58,1.42-1.08,1.55-1.49L49,55.25l1.53-2,1.38-2.1L53,49.06l.85-1.9.48-1.61.2-.92.25-1,.3-1,.59-1.73a.2.2,0,0,0,0-.07l.19-2,.18-1.42.32-2ZM28.72,4.32l5.07-.07,5.13,1.34,5,2.74,4.46,4L52,17.42l2.56,5.79,1,4.55h0a.17.17,0,0,0-.12,0h-.07a.75.75,0,0,0-.17.1l0,.06-.08.14-.06.31v.16l.08.34.14.24,0,.05.07.05a.77.77,0,0,0,.16.07.24.24,0,0,0,.12,0h.07l.1-.05.06-.05,0,0v0L52,31.05l0-.14h0a.17.17,0,0,0,.12,0h.07l.11-.05.06-.05a.13.13,0,0,0,.06-.07l.08-.13.06-.32v-.17l-.08-.34-.14-.24s0,0,0-.05l-.07-.06-.08,0-.08,0a.24.24,0,0,0-.12,0h-.07a.59.59,0,0,0-.17.1l0,0-1-4.57-2.68-6.06-3.78-5.31L39.52,9.35l-5.18-2.9L29,5H29l-3.1,0ZM55.86,29.74v.07h0l-.09,0h0ZM51.55,35.2l-.06-3.5h0ZM11.87,13.45l3.24-3.76,4-2.68,4.69-1.44,5.1-.05,5.22,1.39,5.06,2.84,4.56,4.16,3.72,5.23,2.64,6,1.34,6.1h0L50.1,25.1l-2.6-5.86a.08.08,0,0,0,0,0l-1.69-2.37h0l-2-2.82L39.26,9.87,34.21,7,29,5.63a.09.09,0,0,0-.07,0l-5.06,0h-.07L19.18,7.09l-.07,0-4,2.66,0,0-1.74,2h0L11.9,13.47h0a.23.23,0,0,0-.08.09l-1.3,2.6Zm1.8.59a.35.35,0,0,0,.09.07l-.68.2-.06.25,0-.26-.62-.61,1.12-1.3.24.32.12.12.43.26.05,0-.35.22-.29.31,0,0h0v0s0,.1,0,.13A.35.35,0,0,0,13.67,14Zm3.8,38.64-2-1.79-1.83-2.42L12.15,45.6l-1.1-3.09-.6-3.08,0-2.86.49-2.37.09-.15-.48,2.34.05,2.93.61,3.17,1.13,3.17,1.56,2.94,1.89,2.49,1.76,1.61Zm-2.59-1.8L13.8,50l-1.35-1.69-1.06-2.08L10.69,44l-.2-1.67.08.36,1.12,3.17,1.57,2.92Zm0-19.84L15,31l.14-.08h0l1.83-.56,1.82-.27,2,.54L22.86,32l1.9,1.91,1.7,2.42L27.82,39l1,2.85.56,2.81.09,2.66-.36,2.25-.86,1.86-1.37,1.33L25,53.29l-1.58.32-.41,0H23l-2-.34L18.77,52.2l-1.95-1.78L15,48l-1.5-2.82-1.08-3.05-.59-3,0-2.77L12.29,34a.25.25,0,0,0-.11-.26l.74-1.32a.26.26,0,0,0,.29-.06l1.62-1.26.08-.05Zm-.46-1.21.23.74-.38.06h0l-.4.12-.07,0-.09,0h0l-.6.17L13,31,11.54,32.1a.27.27,0,0,0-.07.08l-1,1.81,0,.07-.49,2.39a.16.16,0,0,0,0,.1v5l.29,2.47.63,2.08,0,.23,0,.15.13.27.17.17a.15.15,0,0,0,.07,0L12,48.62l1.41,1.78L15,51.62l.73.5-1-.13-1.55-.78-1.45-1.33-1.26-1.82-.94-2.17L9,43.55l-.13-2.38,0-1.5,0-1.51L8.8,36.64l-.13-1.53-.1-.8.06-2.26,0-1.57-.08-1.56,0-.44.07-.76.2-4,.26.14.07,0,.07,0,.08,0,.09,0h.46l.09,0,.42-.14.17,0h0l3.13-1h0l.28-.09-.24,3.06a.2.2,0,0,0,0,.11l0,.72.44,1.9Zm-3.32-8.58,1-.31V21a.59.59,0,0,0,0,.08.36.36,0,0,0,.07.1.24.24,0,0,0,.12.07h.15l.11,0,.12-.1s0-.07,0-.08a.17.17,0,0,0,0-.06.19.19,0,0,0,0-.07.24.24,0,0,0,0-.08v-.12l.94-.31-.45,1.78h0l0,.1-2.57.85.4-1.58v-.31Zm4-4-.66,2.57,0,0a.24.24,0,0,0-.25-.06l-3.47,1.11-.09,0a.32.32,0,0,0-.09.17l0,.11a.08.08,0,0,1,0,0l-.13.54h0l-.18.71v.08h0l-.18.72h0l0,.1h0l-.25.09v.25l-.06-.24-.06.25,0-.25-.23,0,0,.25,0-.27-.11.23,0-.25-.4-.22L10,18.29l2.07-4.15.19.25.12.12.42.26.09,0h.29L17,13.7Zm2-4.24s0,.05.08.08l-2.71.78.12-.1,0,0,.09-.1.12-.18,0-.12a.35.35,0,0,0-.05-.2.38.38,0,0,0-.09-.09l.29-.08h0l2.43-.68-.29.29,0,.07h0l0,0a.42.42,0,0,0,0,.12A.36.36,0,0,0,17.16,13Zm25.63,2.24-2.54-1.72-2.67-1.46-2.73-1.16-2.66-.83-2.73-.53-2.58-.23h-.09a.18.18,0,0,0-.1,0l-2.46.07-2,.29h0l-.43.06h0l-.1,0-.09,0-2.25.61a.25.25,0,0,0,.13.48l.18-.05-.79.43h0l-.4.22-3.54,1h-.13l-.2,0-.48-.24-.3-.26,1.58-1.82,3.95-2.62,4.58-1.4,5,0L34,7.49,39,10.27l4.44,4.06,1.84,2.59-.21.19Zm3.8,4.32-1.39-2h0l.31-.27,1.39,2-.34.3Zm2.6,5.76-2.38-5.43.11,0,.26-.23,2.44,5.52,1.32,6-.44.06ZM35.52,53.75l-.31,2v.06L35.36,57l-1.67-1.24-.77-.88-.15-.24L32.48,53v-.13l.25-2,.73-2.48,1.14-2.69L36,43.07l1.63-2.46,1.71-2.1L41,36.91l1.6-1.1,1.53-.48.28,0,.14,0,1.1.39L47.57,37l.1.07-1.15.36-.06,0-1.69,1.19L42.9,40.46,41,42.84l-1.83,2.74-1.59,2.87-1.24,2.79Zm.46.34-.11.68.14-.9.78-2.45L38,48.67l1.57-2.83,1.8-2.7,1.89-2.35L45.09,39l1.62-1.14.11,0-1.58,1.12-1.87,1.85-1.92,2.38-1.83,2.74L38,48.78l-1.24,2.79Zm.59,2.67a.08.08,0,0,0,0,.07l.1.94-.13-.15-.15-1.29h0l.3-2,.79-2.45,1.23-2.75,1.57-2.83,1.81-2.7L44,41.29l1.82-1.81,1.62-1.14.95-.31h0l.25-.08.27.09-1,.32-.07,0-1.67,1.2-1.87,1.86L42.4,43.84l-1.83,2.74L39,49.45l-1.25,2.79-.82,2.51ZM40.09,56l.18.78a.18.18,0,0,0,0,.09l-.05.23,0,.18.06.9-1.72.58-.86-.05-.5-.61-.14-1.3.31-1.94.8-2.45,1.23-2.74L41,46.84l1.81-2.71,1.9-2.35L46.52,40l1.61-1.15,1.21-.39.31.1-.55,1.83-.78,2.34-1,1.63-.25.2-1.41,1.39L44.22,47.6l-1.34,1.85-1.15,1.89-.89,1.8-.57,1.58-.19,1.19A.34.34,0,0,0,40.09,56ZM41,58v.08l0,.69-.16-.17-.08-.23h0l-.06-1v0l.1-.45h0l.06-.25h0l.11-.49h0l.09-.39.76-1.84L43,51.75l1.41-2.17,1-1.41,1.48-2.23h0l.25-.38h0l.58-.91h0l1.06-1.71.8-2.41.51-1.66.11-.41h0l0-.08h0l.46-1.67s0,0,0-.07l0-.85s0,0,0-.06l-.17-3.87h0l.41-.05.07,4.75,0,.8-.59,2.14L50,41.1l-.77,2.32-2.36,3.7-2,2.87-1.48,2.27L42.2,54.45l-.81,2Zm.5.19v-.1l.36-1.49.79-1.91,1.17-2.16,1.46-2.24,2-2.88,1.87-2.91.52-.85.79-2.38.5-1.65L51.4,38l.14-.57,0-.6,0,.86-.6,2.14-.5,1.64-.77,2.32-2.36,3.7-2,2.88L43.87,52.6l-1.2,2.19-.82,2Zm8.09-5.51-1.17,1.53-1.21,1.37-1.16,1.12-1,.78-.85.4H43.7l-.23-.27,0-.72.29-1.13.61-1.46.89-1.64,1.11-1.7,1.24-1.63,1.28-1.43,1.21-1.13,1-.75.81-.32.4.06,0,0h0l.18.32,0,.78-.35,1.18-.63,1.43-.87,1.57Zm6-15.3-.19,1.43-.14,1.39,0,.56-.59,1.72-.3,1.06-.26,1-.2.9L53.42,47l-.82,1.86-1.14,2-.08.13.78-1.41L52.85,48l.39-1.35,0-1a.28.28,0,0,0,0-.13L53,45a.24.24,0,0,0-.18-.13l-.32,0h0l-.31,0a.2.2,0,0,0-.13,0l-.19.08h0l-.09,0h0l-.68.28-1.18.84-1.33,1.24-1.38,1.55-1.33,1.75-1.2,1.83-1,1.78L43,55.8l-.32,1.27s0,0,0,.07v.42h0v.09h0l0,.37a.25.25,0,0,0,.06.16l.09.11h0l.28.33a.42.42,0,0,0,.19.09H44l.1,0,1-.48,1.16-.87,1.26-1.21-.5.58-1.51,1.45-1.36,1L43,59.73l-.69,0L42,59.36l0-1,.37-1.49.8-1.91,1.16-2.16,1.47-2.25,2-2.87,1.87-2.91.52-.86.8-2.38.5-1.65.47-1.64.14-.57,0-.86L52,33h0a.23.23,0,0,0,.14,0h.06l.1,0,.07-.05,0,0,.08-.12.12-.3,0-.34v-.17l-.09-.25a.16.16,0,0,0,0-.07l-.05-.06-.1-.06-.06,0a.2.2,0,0,0-.13,0l3.19-1.52h0l-.09.12-.11.3,0,.33v.17l.08.24a.43.43,0,0,0,0,.07l.05.05a.23.23,0,0,0,.1.07l.06,0a.23.23,0,0,0,.14,0h.07l.09,0,0,0v3.41l0,.73Z" id="id_104" style="fill: rgb(104, 135, 230);"></path><path d="M50.42,48.61a.25.25,0,0,0-.18-.12l-.3,0-.13,0-.48.21-.56.4-.61.59-.06.06-.58.65-.61.81-.56.85-.45.82-.32.76-.16.59v.49a.24.24,0,0,0,0,.14l.17.22a.24.24,0,0,0,.19.11H46l-.3.26-.39.51h0l0,0-.09.17-.11.31a.13.13,0,0,0,0,.06v.09a.59.59,0,0,0,.09.2.28.28,0,0,0,.19.09h.07l.11,0,.49-.29.14-.11.41-.47.23-.37.1-.3a.15.15,0,0,0,0-.07v-.08a.44.44,0,0,0-.08-.2.22.22,0,0,0-.09-.07l.53-.39.6-.58.62-.7.6-.78.54-.83.44-.8.33-.75.17-.65,0-.44a.33.33,0,0,0,0-.14Zm-2.89,5-.56.54-.49.36-.38.17H46l0-.06V54.3l.13-.52.3-.7.43-.79L47,52l-.33.71-.08.31a.15.15,0,0,0,0,.07v.22a.24.24,0,0,0,.05.14l.08.12a.26.26,0,0,0,.19.1H47a.16.16,0,0,0,.12,0l.27-.13.3-.22L48,53l.11-.11Zm1.39-2.82-.16.35-.21.4-.27.4-.29.39-.31.35-.28.27-.23.17-.12.06v0l.06-.24L48,51.11a.26.26,0,0,0,.32,0l.35-.35.23-.17.11,0Zm1.18-1.43-.15.56-.31.7-.42.77-.12.18.29-.61.08-.31a.13.13,0,0,0,0-.06v-.23a.19.19,0,0,0,0-.13l-.08-.13a.25.25,0,0,0-.19-.11L49,50h0l-.1,0-.09,0,.27-.54.5-.37L50,49h.11l0,.08Z" id="id_105" style="fill: rgb(177, 104, 230);"></path><path d="M18.24,40.56,19,42.68l1,2,1.27,1.73,1.27,1.2.86.5h0l.17.1h0l0,0h0l.89.17h.05a.25.25,0,0,0,.24-.2.25.25,0,0,0-.19-.3l-.78-.15,0-.07a.24.24,0,0,0,0-.14l.16-.95-.05-1.49-.37-1.88-.71-2L22,39.3l-1.23-1.7-1.24-1.22-.87-.54.07-.13.37-.29a.25.25,0,0,0-.31-.39l-.15.12a.26.26,0,0,0-.25.13l-.08.15h0l-.18.33a.24.24,0,0,0-.09.15L18,36h0l-.2,1.07,0,1.54Zm.22-4.25.75.46,1.18,1.15,1.17,1.64,1,1.85.69,2,.35,1.8.05,1.4-.17,1-.57-.33-1.2-1.13-1.21-1.66-1-1.92-.72-2.06-.37-1.88,0-1.45Z" id="id_106" style="fill: rgb(175, 102, 227);"></path></g></svg>